<svg width="22" height="17" viewBox="0 0 22 17" fill="none" xmlns="http://www.w3.org/2000/svg">
<path d="M2 17C1.45 17 0.979333 16.8043 0.588 16.413C0.196 16.021 0 15.55 0 15V2C0 1.45 0.196 0.979333 0.588 0.588C0.979333 0.196 1.45 0 2 0H20C20.55 0 21.021 0.196 21.413 0.588C21.8043 0.979333 22 1.45 22 2V15C22 15.55 21.8043 16.021 21.413 16.413C21.021 16.8043 20.55 17 20 17H2ZM2 15H20V2H2V15ZM7 13H15V12H7V13ZM4 10H6V8H4V10ZM8 10H10V8H8V10ZM12 10H14V8H12V10ZM16 10H18V8H16V10ZM4 6H6V4H4V6ZM8 6H10V4H8V6ZM12 6H14V4H12V6ZM16 6H18V4H16V6Z" fill="white"/>
</svg>
